<?xml version="1.0" standalone="no"?>
<!DOCTYPE svg PUBLIC "-//W3C//DTD SVG 20010904//EN"
 "http://www.w3.org/TR/2001/REC-SVG-20010904/DTD/svg10.dtd">
<svg version="1.0" xmlns="http://www.w3.org/2000/svg"
 width="200.000000pt" height="200.000000pt" viewBox="0 0 200.000000 200.000000"
 preserveAspectRatio="xMidYMid meet">

<g transform="translate(0.000000,200.000000) scale(0.100000,-0.100000)"
fill="#000000" stroke="none">
<path d="M189 991 c21 -6 28 -19 45 -86 l21 -80 89 0 89 0 18 50 c31 88 34 85
-88 83 l-108 -2 103 -3 c81 -3 102 -7 102 -18 0 -12 -18 -15 -87 -17 l-88 -2
78 -5 c42 -3 77 -9 77 -13 0 -5 0 -12 0 -18 0 -5 -30 -11 -67 -12 l-68 -2 63
-3 c46 -3 62 -8 62 -18 0 -12 -17 -15 -84 -15 l-84 0 -11 48 c-31 125 -30 122
-59 121 -27 -1 -27 -1 -3 -8z"/>
<path d="M510 895 l0 -75 38 1 c36 1 36 2 7 8 -23 5 -31 12 -33 33 -3 21 2 27
20 31 l23 4 -22 2 c-17 1 -23 7 -23 26 0 20 5 25 25 25 14 0 25 5 25 10 0 6
-13 10 -30 10 l-30 0 0 -75z"/>
<path d="M617 963 c-4 -3 -7 -38 -6 -77 1 -45 4 -62 8 -46 4 15 16 27 31 30
48 11 34 100 -15 100 -7 0 -15 -3 -18 -7z m43 -48 c0 -28 -4 -35 -20 -35 -16
0 -20 7 -20 35 0 28 4 35 20 35 16 0 20 -7 20 -35z"/>
<path d="M723 895 c0 -44 2 -61 4 -37 2 23 2 59 0 80 -2 20 -4 1 -4 -43z"/>
<path d="M780 951 c-11 -22 -14 -90 -4 -115 9 -23 51 -20 64 4 7 14 7 20 0 20
-5 0 -10 -7 -10 -15 0 -8 -9 -15 -20 -15 -18 0 -20 7 -20 65 0 53 3 65 16 65
9 0 18 -9 21 -20 5 -18 23 -29 23 -14 0 18 -24 44 -40 44 -11 0 -24 -9 -30
-19z"/>
<path d="M893 895 c0 -44 2 -65 4 -47 5 40 17 41 33 2 7 -16 16 -30 21 -30 5
0 0 18 -11 40 -19 37 -19 42 -5 73 l16 32 -25 -29 -24 -29 -5 34 c-2 19 -4 -2
-4 -46z"/>
<path d="M997 963 c-4 -3 -7 -13 -7 -22 1 -14 2 -13 11 2 14 23 36 22 44 -4 8
-24 -1 -35 -30 -41 -15 -2 -20 -11 -20 -38 0 -33 2 -35 33 -36 l32 -1 0 67 c0
53 -4 69 -16 74 -20 8 -39 8 -47 -1z m53 -91 c0 -21 -18 -42 -37 -42 -13 0
-18 41 -6 53 14 14 43 7 43 -11z"/>
<path d="M1125 960 c-3 -6 -11 -8 -16 -5 -5 4 -9 -23 -9 -64 0 -90 18 -93 22
-4 3 63 20 95 31 58 4 -13 5 -12 3 1 -1 21 -21 30 -31 14z"/>
<path d="M1192 898 c3 -67 5 -73 26 -76 12 -2 22 1 22 6 0 6 3 17 6 26 3 9 1
16 -5 16 -6 0 -11 -9 -11 -21 0 -12 -5 -19 -12 -17 -8 3 -14 27 -16 61 -3 52
-1 57 18 57 11 0 20 5 20 10 0 6 -11 10 -25 10 -26 0 -26 -1 -23 -72z"/>
<path d="M283 783 c9 -2 23 -2 30 0 6 3 -1 5 -18 5 -16 0 -22 -2 -12 -5z"/>
<path d="M373 783 c9 -2 23 -2 30 0 6 3 -1 5 -18 5 -16 0 -22 -2 -12 -5z"/>
</g>
</svg>
